<?xml version="1.0" encoding="utf-8"?><!-- Uploaded to: SVG Repo, www.svgrepo.com, Generator: SVG Repo Mixer Tools -->
<svg width="50px" height="50px" viewBox="0 0 24 24" fill="none" xmlns="http://www.w3.org/2000/svg">
<path d="M16.2427 6.58577C16.6332 6.19525 16.6332 5.56208 16.2427 5.17156C15.8521 4.78103 15.219 4.78103 14.8284 5.17156L13 7V1.82837C13 1.27608 12.5523 0.828369 12 0.828369C11.4477 0.828369 11 1.27608 11 1.82837V6.99988L9.17158 5.17146C8.78106 4.78094 8.1479 4.78094 7.75737 5.17146C7.36685 5.56199 7.36685 6.19515 7.75737 6.58568L10.5858 9.4142C11.3669 10.1952 12.6332 10.1952 13.4142 9.4142L16.2427 6.58577Z" fill="#0F0F0F"/>
<path d="M7.75737 17.4142C7.36685 17.8047 7.36685 18.4379 7.75737 18.8284C8.14789 19.219 8.78106 19.219 9.17158 18.8284L11 17V22.1714C11 22.7237 11.4477 23.1714 12 23.1714C12.5523 23.1714 13 22.7237 13 22.1714L13 16.9998L14.8284 18.8283C15.219 19.2188 15.8521 19.2188 16.2427 18.8283C16.6332 18.4378 16.6332 17.8046 16.2427 17.4141L13.4142 14.5856C12.6332 13.8046 11.3668 13.8047 10.5858 14.5858L7.75737 17.4142Z" fill="#0F0F0F"/>
</svg>