<!DOCTYPE svg PUBLIC "-//W3C//DTD SVG 1.1//EN" "http://www.w3.org/Graphics/SVG/1.1/DTD/svg11.dtd">

<!-- Uploaded to: SVG Repo, www.svgrepo.com, Transformed by: SVG Repo Mixer Tools -->
<svg width="56px" height="56px" viewBox="0 0 48 48" xmlns="http://www.w3.org/2000/svg" fill="#052e0c" stroke="#052e0c">

<g id="SVGRepo_bgCarrier" stroke-width="0"/>

<g id="SVGRepo_tracerCarrier" stroke-linecap="round" stroke-linejoin="round"/>

<g id="SVGRepo_iconCarrier"> <title>input</title> <g id="Layer_2" data-name="Layer 2"> <g id="invisible_box" data-name="invisible box"> <rect width="48" height="48" fill="none"/> </g> <g id="icons_Q2" data-name="icons Q2"> <path d="M8,9.7a2,2,0,0,1,.6-1.4A21.6,21.6,0,0,1,24,2a22,22,0,0,1,0,44A21.6,21.6,0,0,1,8.6,39.7a2,2,0,1,1,2.8-2.8,18,18,0,1,0,0-25.8,1.9,1.9,0,0,1-2.8,0A2,2,0,0,1,8,9.7Z"/> <path d="M33.4,22.6l-7.9-8a2.1,2.1,0,0,0-2.7-.2,1.9,1.9,0,0,0-.2,3L27.2,22H4a2,2,0,0,0-2,2H2a2,2,0,0,0,2,2H27.2l-4.6,4.6a1.9,1.9,0,0,0,.2,3,2.1,2.1,0,0,0,2.7-.2l7.9-8A1.9,1.9,0,0,0,33.4,22.6Z"/> </g> </g> </g>

</svg>