<!DOCTYPE svg PUBLIC "-//W3C//DTD SVG 1.1//EN" "http://www.w3.org/Graphics/SVG/1.1/DTD/svg11.dtd">

<!-- Uploaded to: SVG Repo, www.svgrepo.com, Transformed by: SVG Repo Mixer Tools -->
<svg width="56px" height="56px" viewBox="-8.16 -8.16 64.32 64.32" xmlns="http://www.w3.org/2000/svg" fill="#472424" stroke="#472424">

<g id="SVGRepo_bgCarrier" stroke-width="0">

<path transform="translate(-8.16, -8.16), scale(2.01)" d="M16,28.91615568473935C19.806282140989822,28.91222461781093,22.811594104066415,26.28613736269482,25.40608083547856,23.50109915997092C28.38491156847422,20.30348890033954,32.34677904386456,16.750419366810547,31.28175099873206,12.512040057284253C30.225262400459872,8.307644279978485,25.081333684807717,7.0262320279509245,20.942323935232643,5.737158599697832C17.7174722791195,4.732795036558069,14.535111793334703,5.239357085723159,11.327464201880986,6.297379438955662C7.1858233421348485,7.66347358855848,1.6929963337397729,8.265796115245433,0.5317230683759373,12.469466730297114C-0.6442464773397001,16.726336126125062,3.5438748250367547,20.303522720338023,6.569524504521167,23.52055325215197C9.179994237683053,26.296142538281437,12.189693893261019,28.920090907554826,16,28.91615568473935" fill="#7ed0ec" strokewidth="0"/>

</g>

<g id="SVGRepo_tracerCarrier" stroke-linecap="round" stroke-linejoin="round"/>

<g id="SVGRepo_iconCarrier"> <title>align-top</title> <g id="Layer_2" data-name="Layer 2"> <g id="invisible_box" data-name="invisible box"> <rect width="48" height="48" fill="none"/> </g> <g id="Q3_icons" data-name="Q3 icons"> <path d="M6,4H42a2,2,0,0,1,0,4H6A2,2,0,0,1,6,4Z"/> <path d="M31.4,18.5l-6-5.9a1.9,1.9,0,0,0-2.8,0l-6,5.9a2.1,2.1,0,0,0-.2,2.7,1.9,1.9,0,0,0,3,.2L22,18.8V42a2,2,0,0,0,4,0V18.8l2.6,2.6a1.9,1.9,0,0,0,3-.2A2.1,2.1,0,0,0,31.4,18.5Z"/> </g> </g> </g>

</svg>